PathFileType	4	(X/Y/Z)	C:/Users/opensim2020/Desktop/walking_exp_matlab/subject01_walking07_straight_03.trc																																																																																																																															
DataRate	CameraRate	NumFrames	NumMarkers	Units	OrigDataRate	OrigDataStartFrame	OrigNumFrames																																																																																																																											
100	100	4	43	mm	100	2036	220																																																																																																																											
Frame#	Time	LFHD			RFHD			LBHD			RBHD			C7			T10			CLAV			STRN			RBAK			LSHO			LUPA			LELB			LFRM			LWRA			LWRB			LFIN			RSHO			RUPA			RELB			RFRM			RWRA			RWRB			RFIN			LASI			RASI			LPSI			RPSI			LTHI			LKNE			LTIB			LANK			LHEE			LTOE			RTHI			RKNE			RTIB			RANK			RHEE			RTOE			*39			*40			*41			*42		
		X1	Y1	Z1	X2	Y2	Z2	X3	Y3	Z3	X4	Y4	Z4	X5	Y5	Z5	X6	Y6	Z6	X7	Y7	Z7	X8	Y8	Z8	X9	Y9	Z9	X10	Y10	Z10	X11	Y11	Z11	X12	Y12	Z12	X13	Y13	Z13	X14	Y14	Z14	X15	Y15	Z15	X16	Y16	Z16	X17	Y17	Z17	X18	Y18	Z18	X19	Y19	Z19	X20	Y20	Z20	X21	Y21	Z21	X22	Y22	Z22	X23	Y23	Z23	X24	Y24	Z24	X25	Y25	Z25	X26	Y26	Z26	X27	Y27	Z27	X28	Y28	Z28	X29	Y29	Z29	X30	Y30	Z30	X31	Y31	Z31	X32	Y32	Z32	X33	Y33	Z33	X34	Y34	Z34	X35	Y35	Z35	X36	Y36	Z36	X37	Y37	Z37	X38	Y38	Z38	X39	Y39	Z39	X40	Y40	Z40	X41	Y41	Z41	X42	Y42	Z42	X43	Y43	Z43
																																																																																																																																		
1	0	-971.40643	1658.11438	1458.17175	-922.20282	1664.41016	1561.32825	-1072.99792	1599.01074	1501.46936	-1023.92316	1604.18469	1611.75659	-1086.80273	1415.36877	1512.88464	-1132.92065	1125.71008	1507.30078	-943.30511	1346.76941	1508.73694	-906.9704	1189.2915	1504.69861	-1148.00415	1225.55493	1586.74683	-1002.10266	1381.49451	1349.42285	-1059.59229	1207.20728	1257.70593	-1104.11182	1067.83691	1248.59741	-1101.63391	957.38947	1214.80359	-1071.07837	819.65558	1225.09485	-1121.61047	837.42462	1196.9176	-1101.55823	754.23474	1185.71863	-1004.45667	1373.52881	1661.00415	-1036.14343	1174.30566	1767.64026	-1010.22253	1052.12305	1781.95374	-954.0163	949.31476	1822.41309	-842.23523	861.65662	1822.07605	-889.72858	849.95264	1853.32043	-832.23907	789.83954	1866.302	-957.46436	920.8454	1406.8324	-980.81342	911.97882	1624.50098	-1146.79419	930.86877	1436.24316	-1162.27698	937.16986	1578.62927	-915.76666	599.58282	1343.0072	-895.75732	468.97159	1364.79968	-893.39783	281.19534	1355.49707	-843.97626	65.35856	1409.13147	-876.9762	27.57019	1465.974	-695.40228	64.76932	1404.17468	-1114.1665	597.10083	1675.46204	-1147.72241	440.21259	1658.78064	-1252.22241	295.78308	1651.47681	-1323.7677	98.17476	1606.13062	-1363.67102	69.36277	1545.08191	-1202.75073	28.51222	1645.39294	-944.80426	1696.43542	1545.9198	1973.1311	1023.41486	-3101.96899	2012.65063	1022.08612	-3140.57422	NaN	NaN	NaN
2	0.01	-963.39471	1657.58826	1456.30359	-914.14203	1663.94104	1559.51941	-1064.98376	1598.64001	1499.76465	-1015.92621	1603.84192	1609.96167	-1078.97754	1414.79358	1511.62122	-1124.08618	1124.75574	1506.37854	-935.1214	1346.23779	1506.76501	-898.32385	1188.90515	1502.76721	-1139.18604	1224.68689	1585.74878	-994.51587	1380.71277	1347.58948	-1052.02795	1205.96973	1256.69421	-1096.13538	1066.45422	1248.26184	-1093.14124	955.81787	1214.88892	-1061.79211	818.25946	1225.37988	-1112.58923	835.70007	1197.43091	-1092.25439	752.65051	1186.58337	-995.58276	1372.89868	1659.32825	-1027.31177	1173.78967	1765.85632	-1002.03009	1051.38623	1779.97327	-945.6311	948.27026	1820.04834	-833.95496	860.53302	1818.68579	-881.1485	848.927	1850.43787	-823.66901	788.55597	1862.67029	-948.47888	919.97485	1405.67786	-971.38696	911.48395	1623.56897	-1137.73792	930.06689	1435.2085	-1152.66235	936.39777	1577.53333	-905.66949	598.95673	1343.67004	-886.40454	468.23206	1365.1355	-887.67444	279.79907	1356.12561	-842.54407	64.18446	1410.91492	-875.81787	28.01525	1467.15308	-693.1687	58.97592	1404.80774	-1105.58215	596.91742	1675.45032	-1139.99866	440.08759	1659.05762	-1246.76355	297.29141	1651.69116	-1321.80371	100.86666	1606.7207	-1362.37854	73.21322	1545.67725	-1202.39832	28.49146	1645.36963	-936.7312	1695.96191	1543.9906	1973.01282	1023.28192	-3102.09058	2012.52161	1021.98291	-3140.52637	NaN	NaN	NaN
3	0.02	-955.28168	1657.44446	1454.31836	-906.07349	1663.84851	1557.57178	-1056.96631	1598.50574	1497.79834	-1007.91217	1603.7854	1608.05884	-1070.86719	1413.99829	1509.89209	-1115.11328	1124.06238	1505.28174	-926.78693	1345.93396	1504.74463	-889.54901	1188.90295	1500.7218	-1130.31116	1223.9657	1584.44763	-987.21704	1380.20544	1345.81567	-1044.22778	1204.85474	1255.56409	-1087.61389	1065.18213	1248.04883	-1084.2373	954.20538	1214.92676	-1052.11902	816.92395	1225.80579	-1103.11438	833.9126	1198.00208	-1082.24902	750.90417	1187.43909	-986.72095	1372.53479	1657.52222	-1018.5686	1173.39221	1764.03064	-994.13031	1050.73193	1777.9679	-937.49957	947.29291	1817.61987	-825.97998	859.41461	1815.07776	-872.86359	847.86438	1847.45105	-815.36951	787.37823	1858.80664	-938.89697	919.74738	1404.78247	-961.82422	911.12103	1622.6311	-1128.52002	929.29315	1433.83386	-1143.48401	936.22388	1576.51306	-896.43292	598.39423	1344.44238	-877.43463	467.6142	1365.30078	-881.72815	278.74655	1357.26697	-838.85339	64.6861	1411.56775	-873.40753	29.41883	1467.58838	-689.94196	54.77045	1404.59119	-1096.70667	596.69379	1675.31189	-1132.00488	439.97366	1659.38184	-1241.15808	299.11856	1651.94983	-1319.65955	104.10542	1607.46497	-1360.91272	77.42881	1546.46997	-1202.01038	28.56866	1645.35742	-928.6474	1695.66846	1542.13049	1973.24951	1023.22388	-3101.99683	2012.52063	1021.96478	-3140.72681	NaN	NaN	NaN
4	0.03	-947.21155	1657.77698	1452.34644	-897.93262	1664.14307	1555.59473	-1048.80444	1598.76831	1495.77637	-999.79584	1604.0625	1606.02917	-1062.72437	1413.85779	1508.15967	-1106.16833	1123.76587	1504.20691	-918.5108	1345.97754	1502.62366	-880.81384	1189.13855	1498.61719	-1121.41626	1223.42456	1582.80029	-979.61487	1379.78687	1343.80627	-1035.98511	1203.79175	1254.2417	-1078.96777	1063.46558	1247.45972	-1074.96533	952.56628	1214.86646	-1042.03979	815.53204	1226.33716	-1093.11133	832.17999	1198.57715	-1071.64136	749.40149	1188.29419	-978.04114	1372.354	1655.67822	-1009.85938	1173.0542	1762.10999	-986.44196	1050.36743	1775.66431	-929.61267	946.46503	1815.05969	-818.33911	858.24585	1811.21582	-864.80231	846.96515	1844.33789	-807.35291	786.22321	1854.68799	-929.69153	919.15521	1403.54504	-952.10919	910.81543	1621.46326	-1119.10901	928.69421	1432.25964	-1133.6189	935.25824	1575.12683	-887.6795	598.54388	1344.453	-869.27917	467.48883	1364.90759	-874.89081	278.6214	1358.38599	-834.24109	64.69847	1411.25403	-870.98889	30.81626	1467.09436	-686.61957	51.437	1404.61255	-1087.31226	596.54584	1674.99304	-1123.12524	439.76654	1659.58667	-1234.88831	301.01529	1652.19983	-1317.01672	107.61131	1608.43811	-1358.87732	82.2877	1547.39282	-1201.58545	28.6087	1645.4165	-920.58478	1695.87415	1540.12756	1973.03113	1023.72754	-3102.12769	2012.64294	1022.01971	-3140.56299	NaN	NaN	NaN
